<svg xmlns="http://www.w3.org/2000/svg" viewBox="0 0 140 103.46"><defs><style>.cls-1,.cls-6{fill:#002868;}.cls-2,.cls-9{fill:#bf0a30;}.cls-3{fill:gray;}.cls-4{fill:#fff;}.cls-5{fill:none;}.cls-6{font-size:10.21px;font-family:Arial-BoldMT, Arial;font-weight:700;}.cls-7{letter-spacing:-0.02em;}.cls-8{letter-spacing:0em;fill:#000;}.cls-9{letter-spacing:0em;}</style></defs><g id="Layer_2" data-name="Layer 2"><g id="Layer_1-2" data-name="Layer 1"><path class="cls-1" d="M15.82,78.25H12.36L11,74.67H4.67L3.38,78.25H0L6.14,62.49H9.51ZM10,72,7.79,66.15,5.65,72Z"/><path class="cls-1" d="M17.26,66.83h2.79v1.56a4.49,4.49,0,0,1,3.56-1.81,3.42,3.42,0,0,1,3.22,1.81,4.44,4.44,0,0,1,3.49-1.81,3.37,3.37,0,0,1,3.43,2A6.66,6.66,0,0,1,34.06,71v7.3H31V71.74a4.85,4.85,0,0,0-.31-2.2,1.4,1.4,0,0,0-1.28-.65,2,2,0,0,0-2,1.51,8,8,0,0,0-.25,2.37v5.48h-3V72c0-.81,0-1.31,0-1.53a1.9,1.9,0,0,0-.62-1.34,1.59,1.59,0,0,0-.92-.24,2,2,0,0,0-2.05,1.46,7.73,7.73,0,0,0-.25,2.36v5.54h-3Z"/><path class="cls-1" d="M43.68,74.62l3,.5a4.78,4.78,0,0,1-5,3.39,5.09,5.09,0,0,1-4.41-1.94,6.51,6.51,0,0,1-1.14-3.95,6.61,6.61,0,0,1,1.32-4.24,4.74,4.74,0,0,1,3.93-1.8,4.81,4.81,0,0,1,4.29,2,8.14,8.14,0,0,1,1.14,4.8H39.3a3.29,3.29,0,0,0,.63,2,2.2,2.2,0,0,0,1.83.85A1.93,1.93,0,0,0,43.68,74.62Zm.16-3.07a3.14,3.14,0,0,0-.55-1.84,2,2,0,0,0-1.68-.82,2,2,0,0,0-1.7.81,2.87,2.87,0,0,0-.56,1.85Z"/><path class="cls-1" d="M52.22,78.25h-3V66.83H52v1.62a5.78,5.78,0,0,1,1.05-1.32,2.3,2.3,0,0,1,1.55-.55,3.83,3.83,0,0,1,2,.56l-1,2.63a2.52,2.52,0,0,0-1.4-.5c-.88,0-1.47.53-1.77,1.61a17.9,17.9,0,0,0-.26,3.84Z"/><path class="cls-1" d="M57.89,65.29V62.48h3v2.81Zm0,13V66.83h3V78.25Z"/><path class="cls-2" d="M64.05,78.25V62.49H74.86v2.68H67.24v3.7h6.58v2.68H67.24v6.7Z"/><path class="cls-2" d="M80.36,78.25h-3V66.83h2.82v1.62a5.78,5.78,0,0,1,1-1.32,2.3,2.3,0,0,1,1.55-.55,3.83,3.83,0,0,1,2,.56l-.94,2.63a2.57,2.57,0,0,0-1.41-.5c-.88,0-1.47.53-1.76,1.61a17,17,0,0,0-.27,3.84Z"/><path class="cls-2" d="M92.64,74.62l3,.5a4.78,4.78,0,0,1-5,3.39,5.09,5.09,0,0,1-4.41-1.94,6.51,6.51,0,0,1-1.14-3.95,6.61,6.61,0,0,1,1.32-4.24,4.74,4.74,0,0,1,3.93-1.8,4.81,4.81,0,0,1,4.29,2,8.14,8.14,0,0,1,1.14,4.8H88.26a3.29,3.29,0,0,0,.63,2,2.2,2.2,0,0,0,1.83.85A1.93,1.93,0,0,0,92.64,74.62Zm.16-3.07a3.14,3.14,0,0,0-.55-1.84,2,2,0,0,0-1.68-.82,2,2,0,0,0-1.7.81,2.87,2.87,0,0,0-.56,1.85Z"/><path class="cls-2" d="M98.28,65.29V62.48h3v2.81Zm0,13V66.83h3V78.25Z"/><path class="cls-2" d="M104.12,79l3.44.42a1.16,1.16,0,0,0,.4.82,2.31,2.31,0,0,0,1.35.32c1.3,0,2.1-.37,2.38-1.11a4.65,4.65,0,0,0,.14-1.38V76.4a4.08,4.08,0,0,1-3.41,1.85,4.18,4.18,0,0,1-3.64-2,6.59,6.59,0,0,1-1-3.82,6.89,6.89,0,0,1,1.13-4.09,4.23,4.23,0,0,1,3.68-1.81A4.15,4.15,0,0,1,112,68.43v-1.6h2.84V77.08c0,2.26-.42,3.8-1.27,4.6a5.91,5.91,0,0,1-4.15,1.21q-5.32,0-5.33-3.51C104.11,79.27,104.11,79.15,104.12,79Zm2.71-6.7a4.82,4.82,0,0,0,.5,2.33,2.05,2.05,0,0,0,1.93,1.17,2.25,2.25,0,0,0,2-1.09,4.2,4.2,0,0,0,.6-2.33,4.57,4.57,0,0,0-.55-2.37,2.22,2.22,0,0,0-2-1.12,2.12,2.12,0,0,0-2,1.11A4.5,4.5,0,0,0,106.83,72.3Z"/><path class="cls-2" d="M120.88,62.49v5.8a4.45,4.45,0,0,1,3.49-1.71A3.56,3.56,0,0,1,127.51,68a6.49,6.49,0,0,1,.74,3.6v6.7h-3v-6c0-.92,0-1.47,0-1.64a1.9,1.9,0,0,0-.74-1.4,2,2,0,0,0-1.09-.29,2.14,2.14,0,0,0-2.2,1.46,6.73,6.73,0,0,0-.27,2.18v5.72h-3V62.49Z"/><path class="cls-2" d="M136.57,66.83v2.4H134.5v4.6c0,.89,0,1.25,0,1.06a1.21,1.21,0,0,0,.33,1,.88.88,0,0,0,.51.15,4,4,0,0,0,1.22-.28l.25,2.35a6,6,0,0,1-2.39.45,2.42,2.42,0,0,1-2.86-2.16,14.25,14.25,0,0,1-.1-2.13v-5h-1.39v-2.4h1.39V64.56l3.05-1.76v4Z"/><path class="cls-3" d="M13.8,96.1h1.55l1.1,5.35,1.07-5.35h1.55l1.07,5.41,1.1-5.41h1.55l-2,7.14H19.47l-1.18-5.45-1.18,5.45H15.79Z"/><path class="cls-3" d="M25.06,96.1h5.17v1.23h-3.7V99H30v1.22H26.53V102h3.86v1.23H25.06Z"/><path class="cls-3" d="M41.22,103.24H39.75l-1.27-5.78v5.78H37V96.1h2.15l1.32,5.48,1.34-5.48H44v7.14H42.49V97.46Z"/><path class="cls-3" d="M53.16,99.72a4.46,4.46,0,0,1-.28,1.58,3.68,3.68,0,0,1-.78,1.27,3.14,3.14,0,0,1-2.37.89,3.19,3.19,0,0,1-2.39-.89,3.68,3.68,0,0,1-.78-1.27,4.57,4.57,0,0,1,0-3.15,3.68,3.68,0,0,1,.78-1.27,3.16,3.16,0,0,1,2.39-.9,3.11,3.11,0,0,1,2.37.9,3.68,3.68,0,0,1,.78,1.27A4.44,4.44,0,0,1,53.16,99.72Zm-3.43,2.46a1.83,1.83,0,0,0,1.3-.48,3.08,3.08,0,0,0,0-4,1.87,1.87,0,0,0-1.3-.47,1.92,1.92,0,0,0-1.32.47,3.12,3.12,0,0,0,0,4A1.88,1.88,0,0,0,49.73,102.18Z"/><path class="cls-3" d="M59.74,96.1h1.48l-2.42,7.14H57.54L55.12,96.1H56.6l1.57,5.38Z"/><path class="cls-3" d="M63.57,96.1h5.17v1.23H65V99h3.42v1.22H65V102h3.87v1.23H63.57Z"/><path class="cls-3" d="M79.31,96.1l2.45,7.14h-1.5l-.49-1.43H77.12l-.49,1.43h-1.5l2.49-7.14Zm-.84,1.71-.88,2.78h1.82Z"/><path class="cls-3" d="M88.18,103.24H86.71l-1.27-5.78v5.78H84V96.1h2.15l1.33,5.48,1.33-5.48h2.14v7.14H89.45V97.46Z"/><path class="cls-3" d="M93.63,96.1H98.8v1.23H95.1V99h3.42v1.22H95.1V102H99v1.23H93.63Z"/><path class="cls-3" d="M101.55,103.24V96.1h4a1.86,1.86,0,0,1,1,.27,1.45,1.45,0,0,1,.64.86,3.36,3.36,0,0,1,.15.87,2.32,2.32,0,0,1-.08.58,1.6,1.6,0,0,1-.37.68,2.58,2.58,0,0,1-.6.44,4.51,4.51,0,0,0,.46.31,1.09,1.09,0,0,1,.34.69q0,.42.06,1.59a.7.7,0,0,0,.27.59v.26h-1.57a1.58,1.58,0,0,1-.2-.67v-1.43c0-.48-.29-.72-.88-.72H103v2.82ZM103,97.33v1.86h2a.84.84,0,0,0,.59-.27.91.91,0,0,0,.28-.79c0-.54-.3-.8-.89-.8Z"/><path class="cls-3" d="M111.3,96.1v7.14h-1.46V96.1Z"/><path class="cls-3" d="M118.62,100.8H120a2.49,2.49,0,0,1-.28,1.09,2.56,2.56,0,0,1-.68.88,3.39,3.39,0,0,1-2.1.69,2.82,2.82,0,0,1-2-.65,3.36,3.36,0,0,1-1.09-1.82,5.33,5.33,0,0,1-.13-1.25,4.6,4.6,0,0,1,.17-1.38A3,3,0,0,1,117,96a3.32,3.32,0,0,1,1.92.56,2.37,2.37,0,0,1,1.08,2h-1.4a1.41,1.41,0,0,0-.38-.84,1.66,1.66,0,0,0-1.42-.47,1.54,1.54,0,0,0-.86.36,1.87,1.87,0,0,0-.56.79,4.28,4.28,0,0,0-.23,1.23,3.46,3.46,0,0,0,.23,1.49,1.85,1.85,0,0,0,1,1,1.62,1.62,0,0,0,.48.07,2.15,2.15,0,0,0,.62-.07,1.46,1.46,0,0,0,.91-.66A2.43,2.43,0,0,0,118.62,100.8Z"/><path class="cls-3" d="M126.2,96.1l2.45,7.14h-1.51l-.48-1.43H124l-.49,1.43H122l2.49-7.14Zm-.84,1.71-.88,2.78h1.82Z"/><path class="cls-2" d="M139.09,65.53c0-.19,0-.31,0-.38A.27.27,0,0,0,139,65l-.11-.08.14-.1a.46.46,0,0,0,.09-.17.59.59,0,0,0,0-.14,1,1,0,0,0,0-.2.32.32,0,0,0-.15-.21.48.48,0,0,0-.24-.06h-1v1.7h.35v-.67h.41c.14,0,.21.06.21.17v.34a.43.43,0,0,0,.05.16h.38v-.06A.16.16,0,0,1,139.09,65.53Zm-.36-.83a.21.21,0,0,1-.14.07h-.48v-.45h.48c.14,0,.21.06.21.19A.19.19,0,0,1,138.73,64.7Z"/><path class="cls-2" d="M138.46,63.34A1.54,1.54,0,1,0,140,64.88,1.54,1.54,0,0,0,138.46,63.34Zm0,2.92a1.38,1.38,0,1,1,1.38-1.38A1.38,1.38,0,0,1,138.46,66.26Z"/><path class="cls-3" d="M56,20.63a1.79,1.79,0,0,1,0,.23,1.64,1.64,0,0,0,0,.23c0,.23,0,.46-.07.71l0,.41c0,.27,0,.56-.05.85s0,.29,0,.44,0,.42,0,.64v.65c0,.44,0,.89,0,1.35v0c0,.39,0,.78.06,1.18v0c0,.2,0,.39,0,.59l.06.59c0,.19,0,.39.07.58,0,.35.09.7.14,1.05s.07.45.11.67q.14.74.3,1.47c.07.3.14.59.22.89,0,.14.07.28.11.42.12.46.26.91.41,1.37,0,.09.06.17.08.25s0,.08,0,.13.13.37.2.55.1.29.16.43.11.29.17.43.22.53.33.8.24.53.37.8l0,0c.08.18.17.36.26.53l.28.54.3.53.31.53.33.53c.11.17.22.35.34.52l.36.52.37.52q.38.49.78,1l.13.15.27.32.16.18c.09.1.17.2.26.29l.17.19.27.28.17.19.28.28.18.18.32.3.15.15.49.45a24.4,24.4,0,0,0,3.53,2.59c.46.29.94.55,1.41.81l.48.25c.64.32,1.28.62,1.94.9l1.12.46.75.28h0l.06,0,.65.23h0l.35.11.38-.4h0l0-.06.18-.19c.59-.63,1.41-1.51,2.3-2.49h0l.75-.84L79.1,48l0,0,.49-.55,0,0L80,47l.16-.18h0l.5-.58,0,0v0c.16-.18.31-.36.46-.55l0,0,.44-.53,0,0c.15-.19.3-.37.44-.56h0l.16-.21q.24-.33.42-.63l.16-.31c0-.1.1-.21.14-.31s.08-.2.12-.29a4.73,4.73,0,0,0,.16-.59,2.74,2.74,0,0,0,0-.28l0-.28h0v0a2.62,2.62,0,0,0,0-.28v-.13c0-.09,0-.18,0-.26s0-.2,0-.3,0-.23-.06-.34l0-.06c0-.14-.08-.28-.12-.42l0-.08L83,39.48a1,1,0,0,0,0-.1,2.56,2.56,0,0,0-.11-.24.89.89,0,0,0-.08-.17,1.3,1.3,0,0,0-.08-.17l-.06-.1s0-.07-.05-.1l-.08-.13-.15-.25-.19-.3-.12-.16-.34-.47-.09-.12,0-.08,0-.05h0l-.28-.38a2,2,0,0,0-.17-.23,6.3,6.3,0,0,0-.45-.55c-.07-.09-.15-.17-.22-.25l-.3-.31c-.2-.2-.41-.4-.62-.62l-.32-.32L78.86,34c-.25-.27-.5-.56-.75-.89-.13-.16-.25-.33-.38-.52s-.25-.37-.37-.58a8.67,8.67,0,0,1-.5-1,14.38,14.38,0,0,1-1-3.72l0-.23a14.2,14.2,0,0,1,0-2.06c0-.11,0-.21,0-.28A5.32,5.32,0,0,1,78.31,21a4.38,4.38,0,0,1,4.38-.45.94.94,0,0,1,.34.37,2.49,2.49,0,0,1,.15.28,4.3,4.3,0,0,1,.24.84,4.92,4.92,0,0,0,.88-2.42,2.79,2.79,0,0,0-.49-1.83,4.35,4.35,0,0,0-4-1.55,3.17,3.17,0,0,0-1.54-2.6,4.93,4.93,0,0,0-1.4-.6,12.28,12.28,0,0,0-9,1.28c-4.17,2.87-4.91,7.07-5.55,9.77,0,.07,0,.15-.05.21h0v0h0c-.07.3-.13.6-.19.89h0a23.71,23.71,0,0,1-.59,2.37,12.45,12.45,0,0,1-1.59,3,1.72,1.72,0,0,1-1.47.41h0l-.08,0c-.82-.3-1.21-1.34-1.48-2.35h0c-.06-.17-.1-.34-.15-.51s-.08-.35-.12-.54h0a29.62,29.62,0,0,1-.5-4.42C56,22,56,21,56,20.5h0V20.4Z"/><path class="cls-1" d="M123.83,0s-7.71,14.86-37.16,20A46.15,46.15,0,0,1,80.13,32.5c-.44.56-2.27.79-3.27-1.39a8.06,8.06,0,0,0,.5,1c.12.2.25.39.37.58s.25.35.38.51c.25.33.5.62.74.89l.33.35.32.32.62.63.3.3.22.25a8.17,8.17,0,0,1,.62.78l.06.09.22.29,0,0,0,.08.09.12.34.47a1.63,1.63,0,0,1,.11.17c.07.09.13.19.2.29l.15.25.07.13.06.1,0,.1.09.17a1.3,1.3,0,0,1,.08.17,2.56,2.56,0,0,1,.11.24l0,.1a.88.88,0,0,1,0,.15l0,.08c.05.14.09.28.13.42l0,.07.06.33c0,.1,0,.2,0,.3a2.17,2.17,0,0,1,0,.26.57.57,0,0,1,0,.13c0,.1,0,.19,0,.28l0,.28a2.74,2.74,0,0,1,0,.28,4.73,4.73,0,0,1-.16.59c0,.09-.07.19-.12.29s-.09.21-.14.31l-.16.31q-.18.3-.42.63l-.16.21c-.07.09-.14.19-.22.28l-.22.28,0,0-.44.53,0,0c-.15.19-.3.37-.46.55v0l0,0-.5.58h0L80,47l-.34.39,0,0-.49.55,0,0-.51.57-.5.56h0c-.89,1-1.71,1.86-2.3,2.49l-.23.25h0l-.38.4.09,0,18-7.32C88.7,40.81,90,38.22,90,38.22a10,10,0,0,0,7.69,4.12l5.77-3.87c-6-2.83-6.27-6.15-6.27-6.15A17.19,17.19,0,0,0,108.06,35l5.72-5.17c-8.85-.86-12.91-3.78-12.91-3.78C114.34,27,118.09,25,118.09,25c2.33-2,4.85-7.38,4.85-7.38A35.49,35.49,0,0,1,108,19.84,38.51,38.51,0,0,0,125.4,9.27,15.43,15.43,0,0,0,123.83,0ZM94.46,27l1.26,3.88-3.3-2.4-3.3,2.4L90.38,27l-3.3-2.4h4.08l1.26-3.88,1.26,3.88h4.08Z"/><polygon class="cls-4" points="92.42 20.7 91.16 24.58 87.08 24.58 90.38 26.98 89.11 30.86 92.42 28.46 95.72 30.86 94.46 26.98 97.76 24.58 93.68 24.58 92.42 20.7"/><path class="cls-2" d="M81.78,53.87a45.33,45.33,0,0,0,7.49.65A49.83,49.83,0,0,1,81.78,53.87Z"/><path class="cls-4" d="M49.78,34.54a28.63,28.63,0,0,0,12.79,17c7.29,4.59,16.78,5.17,22.47,5a21.36,21.36,0,0,0,5.26-2c-21,1.59-30.74-7.32-35-15.62-3.8-7.31-3.15-16.86-2.94-19-1.27-.13-2.51-.32-3.69-.55A44,44,0,0,0,49.78,34.54Z"/><path class="cls-2" d="M90.3,54.52h0Z"/><path class="cls-4" d="M75.11,57.1c-19-1.91-25.82-12.24-28.89-20.72-2.85-7.85-1.64-16.66-1.44-17.92-2.24-.58-4-1.15-4.75-1.39h0l1.07.35c0,.35-.1,1.3-.14,2.64,0,4.56-.6,13.41,5.22,22.67.59.93,1.2,1.81,1.84,2.64l.06.09c.08.09.15.19.22.28l.27.34,0,0c.26.32.52.64.8,1a31.13,31.13,0,0,0,8.39,6.84s-1.2-.43-3.14-1.26h0c11.78,5.26,21,5.51,27.14,4.56A42.61,42.61,0,0,1,75.11,57.1Z"/><path class="cls-2" d="M62.57,51.5a28.63,28.63,0,0,1-12.79-17,44,44,0,0,1-1.15-15.22c-1.39-.26-2.69-.56-3.85-.86-.2,1.26-1.41,10.07,1.44,17.92,3.07,8.48,9.9,18.81,28.89,20.72a42.61,42.61,0,0,0,6.67.1A31,31,0,0,0,85,56.53C79.35,56.67,69.86,56.09,62.57,51.5Z"/><path class="cls-2" d="M49.39,47.06c-.28-.32-.54-.64-.8-1l0,0-.27-.34c-.07-.09-.14-.19-.22-.28L48,45.37c-.64-.83-1.25-1.71-1.84-2.64C40.36,33.47,41,24.62,41,20.06c0-1.34.11-2.29.14-2.64L40,17.07c-1.6-.53-2.55-.92-2.55-.92-1.07-.37-2.11-.78-3.11-1.21A55.35,55.35,0,0,1,14.43.29c-2.33,3.51-1.53,9-1.53,9a40.33,40.33,0,0,0,17,10.2A42.76,42.76,0,0,1,15.6,17.81l4.18,7C26.24,26.85,37,26,37,26c-3.93,2.83-13.16,3.93-13.16,3.93l4.8,5.17a22.08,22.08,0,0,0,12.54-2.65C39.09,38,32.88,39,32.88,39c7.34,6.94,16.9,11.59,21.76,13.68,1.94.83,3.14,1.26,3.14,1.26A31.13,31.13,0,0,1,49.39,47.06Z"/><path class="cls-4" d="M77.54,15.4a.16.16,0,0,0,0,.16.27.27,0,0,0,.1.06l.15.08s0,0,0,.08h0c0,.15-.11.79.4.88a.63.63,0,0,0,.75-.4c0-.09.28-.1.28-.1S77.54,15.4,77.54,15.4Z"/><path class="cls-5" d="M56,29.16c0,.35.09.7.14,1.05s.07.45.11.67c0-.22-.07-.45-.11-.67S56.05,29.51,56,29.16Z"/><path class="cls-5" d="M57.79,36.39c.05.15.11.29.17.43s.22.53.33.8c-.11-.27-.23-.53-.33-.8S57.84,36.54,57.79,36.39Z"/><path class="cls-5" d="M57.38,35.28s0,.08,0,.13.13.37.2.55c-.07-.18-.14-.37-.2-.55S57.4,35.32,57.38,35.28Z"/><path class="cls-5" d="M55.88,28l.06.59c0,.19,0,.39.07.58,0-.19,0-.39-.07-.58Z"/><path class="cls-5" d="M55.77,26.14v0c0,.39,0,.78.06,1.18,0-.4,0-.79-.06-1.18Z"/><path class="cls-5" d="M56.56,32.35q-.16-.74-.3-1.47Q56.4,31.62,56.56,32.35Z"/><path class="cls-5" d="M55.79,23.06c0,.15,0,.29,0,.44s0,.42,0,.64c0-.22,0-.43,0-.64S55.78,23.21,55.79,23.06Z"/><path class="cls-5" d="M61.63,43.18l.38.48q-.4-.49-.78-1Z"/><path class="cls-5" d="M56.89,33.66c.12.46.26.91.41,1.37,0,.09.06.17.08.25,0-.08-.05-.16-.08-.25C57.15,34.57,57,34.12,56.89,33.66Z"/><path class="cls-5" d="M58.29,37.62c.12.27.24.53.37.8l0,0,0,0C58.53,38.15,58.41,37.89,58.29,37.62Z"/><path class="cls-5" d="M60.16,41.11c.11.17.22.35.34.52l.36.52-.36-.52C60.38,41.46,60.27,41.28,60.16,41.11Z"/><path class="cls-5" d="M58.94,39l.28.54.3.53-.3-.53Z"/><path class="cls-3" d="M56,20.83c0,.07,0,.15,0,.23,0,.23,0,.46-.07.7l0,.42h0v0l0-.41c0-.25,0-.48.07-.71a1.64,1.64,0,0,1,0-.23,1.79,1.79,0,0,0,0-.23l0-.23v0c0,.08,0,.16,0,.23Z"/><path class="cls-2" d="M89.27,54.52a45.33,45.33,0,0,1-7.49-.65,46.17,46.17,0,0,1-6.58-1.58h0l-.35-.11h0l-.65-.23-.06,0h0l-.75-.28-1.12-.46c-.66-.28-1.3-.58-1.94-.9L69.8,50c-.47-.26-1-.52-1.41-.81a24.4,24.4,0,0,1-3.53-2.59l-.49-.45L64.22,46l-.32-.3-.18-.18-.28-.28-.17-.19L63,44.79l-.17-.19c-.09-.09-.17-.19-.26-.29l-.16-.18-.27-.32L62,43.66l-.38-.48-.4-.51-.37-.52-.36-.52c-.12-.17-.23-.35-.34-.52l-.33-.53-.31-.53-.3-.53L58.94,39c-.09-.17-.18-.35-.26-.53l0,0c-.13-.27-.25-.53-.37-.8s-.23-.53-.33-.8-.12-.28-.17-.43-.11-.28-.16-.43-.14-.37-.2-.55,0-.09,0-.13-.05-.16-.08-.25c-.15-.46-.29-.91-.41-1.37,0-.14-.08-.28-.11-.42-.08-.3-.15-.59-.22-.89q-.16-.74-.3-1.47c0-.22-.07-.45-.11-.67s-.1-.7-.14-1.05c0-.19,0-.39-.07-.58L55.88,28c0-.2,0-.39,0-.59v0c0-.4,0-.79-.06-1.18v0c0-.46,0-.91,0-1.35v-.65c0-.22,0-.43,0-.64s0-.29,0-.44,0-.58.05-.85v0h0l0-.42c0-.24,0-.47.07-.7,0-.08,0-.16,0-.23l0-.23c0-.07,0-.15,0-.23s0-.32,0-.32a33,33,0,0,1-3.72-.18c-.21,2.17-.86,11.72,2.94,19,4.3,8.3,14,17.21,35,15.62Z"/><text class="cls-6" transform="translate(22.67 91.5)">AU<tspan class="cls-7" x="14.74" y="0">T</tspan><tspan x="20.79" y="0">O</tspan><tspan class="cls-8" x="28.73" y="0"> </tspan><tspan class="cls-9" x="31.56" y="0">TRANSPORT</tspan></text></g></g></svg>